<svg width="1271" height="133" viewBox="0 0 1271 133" fill="none" xmlns="http://www.w3.org/2000/svg">
<path d="M11.0272 94.344L10.2472 94.032C9.72716 93.72 9.46716 92.836 9.46716 91.38C9.57116 88.572 10.1952 84.828 11.3392 80.148C12.4832 75.468 13.6792 71.1 14.9272 67.044C16.1752 62.884 17.0072 60.232 17.4232 59.088L16.4872 60.492C15.6552 61.948 14.4592 63.872 12.8992 66.264C11.3392 68.552 9.67516 70.684 7.90716 72.66C6.24316 74.636 4.78716 75.624 3.53916 75.624C1.45916 75.104 0.419156 73.388 0.419156 70.476C0.419156 67.044 1.82316 63.144 4.63116 58.776C7.64716 53.992 11.0792 51.34 14.9272 50.82C16.4872 50.82 17.6312 51.548 18.3592 53.004C18.3592 53.42 18.1512 53.784 17.7352 54.096C17.4232 54.408 17.1112 54.564 16.7992 54.564C16.2792 54.564 16.0192 54.304 16.0192 53.784C16.0192 53.16 15.8112 52.744 15.3952 52.536C13.7312 52.536 11.9112 53.888 9.93516 56.592C7.95916 59.192 6.24316 62.104 4.78716 65.328C3.22716 68.552 2.44716 71.048 2.44716 72.816C2.44716 73.648 2.86316 74.22 3.69516 74.532C5.15116 74.532 7.28316 72.556 10.0912 68.604C13.0032 64.548 16.0192 59.192 19.1392 52.536C28.3952 29.448 33.2312 17.904 33.6472 17.904C34.5832 16.24 35.4152 15.408 36.1432 15.408C36.8712 15.408 37.4432 15.876 37.8592 16.812C38.3792 17.748 38.6392 18.58 38.6392 19.308C38.6392 19.828 38.4312 20.14 38.0152 20.244C37.8072 20.244 37.4432 19.984 36.9232 19.464C31.8272 27.992 26.2632 40.004 20.2312 55.5C14.1992 70.892 11.1832 82.072 11.1832 89.04L11.4952 91.692L12.1192 91.38C12.4312 91.38 12.5872 91.64 12.5872 92.16C12.5872 92.576 12.4312 93.044 12.1192 93.564C11.8072 94.084 11.4432 94.344 11.0272 94.344ZM44.243 75.624C41.435 75.624 40.031 73.752 40.031 70.008C40.031 67.512 40.551 64.6 41.591 61.272C40.551 62.936 39.147 64.756 37.379 66.732C34.363 70.268 31.815 72.036 29.735 72.036C28.695 72.036 28.175 71.464 28.175 70.32C28.175 68.344 28.955 65.9 30.515 62.988C33.011 58.1 35.403 55.656 37.691 55.656C39.563 55.656 40.863 56.436 41.591 57.996C42.215 57.164 42.683 56.436 42.995 55.812C43.411 55.188 43.723 54.772 43.931 54.564C44.243 54.252 44.607 54.096 45.023 54.096C45.751 54.096 46.115 54.408 46.115 55.032L45.959 55.656C43.151 62.104 41.747 66.94 41.747 70.164C41.747 72.972 42.891 74.376 45.179 74.376C49.547 74.376 57.503 69.332 69.047 59.244L69.359 59.088C69.775 59.088 69.983 59.296 69.983 59.712L69.827 60.18C57.451 70.476 48.923 75.624 44.243 75.624ZM30.983 69.384C31.399 69.384 32.179 68.812 33.323 67.668C34.571 66.524 35.923 65.12 37.379 63.456C38.835 61.792 40.083 60.232 41.123 58.776L39.875 59.088C39.563 59.088 39.303 59.036 39.095 58.932C38.991 58.724 38.835 58.62 38.627 58.62C38.315 58.62 37.587 59.14 36.443 60.18C35.403 61.116 34.311 62.416 33.167 64.08C32.127 65.64 31.347 67.356 30.827 69.228L30.983 69.384ZM62.2451 93.876C59.3331 93.876 57.0971 93.252 55.5371 92.004C53.8731 90.756 53.0411 89.3 53.0411 87.636C53.0411 85.036 54.4971 82.384 57.4091 79.68C60.3211 76.976 63.4931 74.584 66.9251 72.504C70.2531 70.424 72.8531 68.916 74.7251 67.98L72.0731 64.08C70.4091 61.792 68.9011 59.504 67.5491 57.216C66.1971 54.928 65.5211 52.796 65.5211 50.82C65.5211 47.804 66.7171 45.516 69.1091 43.956C71.6051 42.292 74.1531 41.46 76.7531 41.46C78.5211 41.46 80.0811 41.928 81.4331 42.864C82.7851 43.696 83.4611 45.048 83.4611 46.92C83.4611 48.48 82.8891 50.404 81.7451 52.692C81.4331 53.108 81.0171 53.316 80.4971 53.316C80.0811 53.316 79.6651 53.212 79.2491 53.004C78.8331 52.796 78.6251 52.484 78.6251 52.068C79.0411 51.34 79.4571 50.664 79.8731 50.04C80.3931 49.312 80.6531 48.584 80.6531 47.856C80.6531 46.92 80.2371 46.244 79.4051 45.828C78.5731 45.308 77.5851 45.048 76.4411 45.048C74.7771 45.048 73.0611 45.568 71.2931 46.608C69.5251 47.648 68.6411 49.156 68.6411 51.132C68.6411 52.692 69.2131 54.512 70.3571 56.592C71.5011 58.568 72.8011 60.544 74.2571 62.52L77.0651 66.888C86.1131 62.416 93.8091 59.816 100.153 59.088C100.569 59.088 100.777 59.244 100.777 59.556C100.777 59.868 100.621 60.024 100.309 60.024C94.2771 60.648 86.7371 63.196 77.6891 67.668C79.4571 71.1 80.3411 74.376 80.3411 77.496C80.3411 81.552 78.9371 85.036 76.1291 87.948C72.8011 91.588 68.1731 93.564 62.2451 93.876ZM60.8411 92.316C63.1291 92.316 65.6251 91.744 68.3291 90.6C70.9291 89.456 73.1651 87.792 75.0371 85.608C77.0131 83.32 78.0011 80.668 78.0011 77.652C78.0011 74.948 77.0651 71.984 75.1931 68.76C73.6331 69.592 71.2411 71.048 68.0171 73.128C64.6891 75.104 61.6211 77.444 58.8131 80.148C55.9011 82.748 54.4451 85.244 54.4451 87.636C54.4451 88.884 55.0171 89.976 56.1611 90.912C57.2011 91.848 58.7611 92.316 60.8411 92.316ZM235.443 132.876C231.595 132.876 229.671 128.716 229.671 120.396C229.671 112.284 231.075 101.832 233.883 89.04C236.691 76.248 239.707 63.508 242.931 50.82C245.323 41.148 247.403 32.516 249.171 24.924C250.939 17.332 251.823 11.768 251.823 8.23199C251.823 6.04799 251.355 4.85199 250.419 4.64399C247.715 4.64399 243.763 9.584 238.563 19.464C233.467 29.24 227.955 40.472 222.027 53.16L210.327 77.184C201.591 94.656 195.611 103.392 192.387 103.392C190.515 103.392 189.579 101.104 189.579 96.528C189.579 91.12 190.255 84.412 191.607 76.404C192.959 68.292 194.467 59.972 196.131 51.444C197.587 43.852 198.887 36.832 200.031 30.384C201.175 23.832 201.747 18.84 201.747 15.408C201.747 12.704 201.279 11.196 200.343 10.884C195.975 10.884 185.263 28.304 168.207 63.144L164.931 73.128C162.851 79.576 160.667 85.712 158.379 91.536C156.091 97.36 153.127 103.288 149.487 109.32C147.823 111.816 146.471 113.064 145.431 113.064C144.287 113.064 143.663 111.972 143.559 109.788C143.559 108.956 143.715 107.916 144.027 106.668C146.627 97.724 152.815 84.932 162.591 68.292C171.015 43.852 176.683 26.848 179.595 17.28C178.763 16.552 178.347 15.772 178.347 14.94C178.347 13.692 178.867 12.548 179.907 11.508C181.051 10.364 182.091 9.79199 183.027 9.79199C183.859 9.79199 184.379 10.52 184.587 11.976C184.587 12.912 184.327 14.212 183.807 15.876L171.327 53.94C179.959 36.468 186.407 24.612 190.671 18.372C194.935 12.028 198.367 8.856 200.967 8.856C203.047 9.06399 204.087 12.08 204.087 17.904C204.087 23.52 203.359 30.8 201.903 39.744C200.447 48.688 198.887 57.632 197.223 66.576C193.999 81.968 192.387 92.368 192.387 97.776C192.387 99.544 192.699 100.48 193.323 100.584C194.883 100.584 197.483 97.048 201.123 89.976C204.763 82.904 208.923 74.272 213.603 64.08C225.251 39.12 234.351 21.7 240.903 11.82C245.167 5.372 248.807 2.148 251.823 2.148C253.799 2.148 254.787 4.228 254.787 8.38799C254.787 13.484 253.643 20.92 251.355 30.696C249.171 40.368 246.571 50.82 243.555 62.052C240.435 74.012 237.627 85.452 235.131 96.372C232.635 107.188 231.387 115.612 231.387 121.644C231.387 126.844 232.635 129.6 235.131 129.912C235.859 129.912 236.743 129.652 237.783 129.132L238.251 128.976C239.083 128.976 239.499 129.444 239.499 130.38C239.499 131.732 238.147 132.564 235.443 132.876ZM145.743 110.724C145.951 110.724 146.575 109.892 147.615 108.228C149.591 104.796 152.087 98.556 155.103 89.508L157.755 81.708L155.727 85.452C148.967 98.66 145.587 106.98 145.587 110.412C145.587 110.62 145.639 110.724 145.743 110.724ZM260.003 75.78H259.847C257.975 75.78 257.039 74.324 257.039 71.412C257.039 68.812 257.559 65.9 258.599 62.676C259.639 59.348 260.367 57.216 260.783 56.28C261.303 55.24 262.031 54.72 262.967 54.72C264.215 54.72 264.839 55.188 264.839 56.124C264.631 56.852 264.163 57.996 263.435 59.556C260.939 65.484 259.691 69.748 259.691 72.348C259.691 73.076 259.743 73.544 259.847 73.752C260.055 73.96 260.367 74.116 260.783 74.22C262.655 74.22 265.983 70.008 270.767 61.584C272.743 58.36 274.199 56.748 275.135 56.748C276.279 56.748 276.851 57.996 276.851 60.492V61.74C276.851 63.612 277.007 65.328 277.319 66.888C277.735 68.448 278.879 69.228 280.751 69.228C283.975 69.228 289.487 65.9 297.287 59.244L297.599 59.088L297.911 59.4C297.911 59.608 297.859 59.764 297.755 59.868C289.331 67.044 283.507 70.632 280.283 70.632C278.203 70.632 276.799 69.8 276.071 68.136C275.447 66.368 275.031 64.6 274.823 62.832C274.615 60.96 274.251 60.024 273.731 60.024C273.107 60.232 271.963 61.792 270.299 64.704C268.843 67.2 267.231 69.696 265.463 72.192C263.695 74.584 261.875 75.78 260.003 75.78ZM289.999 93.876C287.087 93.876 284.851 93.252 283.291 92.004C281.627 90.756 280.795 89.3 280.795 87.636C280.795 85.036 282.251 82.384 285.163 79.68C288.075 76.976 291.247 74.584 294.679 72.504C298.007 70.424 300.607 68.916 302.479 67.98L299.827 64.08C298.163 61.792 296.655 59.504 295.303 57.216C293.951 54.928 293.275 52.796 293.275 50.82C293.275 47.804 294.471 45.516 296.863 43.956C299.359 42.292 301.907 41.46 304.507 41.46C306.275 41.46 307.835 41.928 309.187 42.864C310.539 43.696 311.215 45.048 311.215 46.92C311.215 48.48 310.643 50.404 309.499 52.692C309.187 53.108 308.771 53.316 308.251 53.316C307.835 53.316 307.419 53.212 307.003 53.004C306.587 52.796 306.379 52.484 306.379 52.068C306.795 51.34 307.211 50.664 307.627 50.04C308.147 49.312 308.407 48.584 308.407 47.856C308.407 46.92 307.991 46.244 307.159 45.828C306.327 45.308 305.339 45.048 304.195 45.048C302.531 45.048 300.815 45.568 299.047 46.608C297.279 47.648 296.395 49.156 296.395 51.132C296.395 52.692 296.967 54.512 298.111 56.592C299.255 58.568 300.555 60.544 302.011 62.52L304.819 66.888C313.867 62.416 321.563 59.816 327.907 59.088C328.323 59.088 328.531 59.244 328.531 59.556C328.531 59.868 328.375 60.024 328.063 60.024C322.031 60.648 314.491 63.196 305.443 67.668C307.211 71.1 308.095 74.376 308.095 77.496C308.095 81.552 306.691 85.036 303.883 87.948C300.555 91.588 295.927 93.564 289.999 93.876ZM288.595 92.316C290.883 92.316 293.379 91.744 296.083 90.6C298.683 89.456 300.919 87.792 302.791 85.608C304.767 83.32 305.755 80.668 305.755 77.652C305.755 74.948 304.819 71.984 302.947 68.76C301.387 69.592 298.995 71.048 295.771 73.128C292.443 75.104 289.375 77.444 286.567 80.148C283.655 82.748 282.199 85.244 282.199 87.636C282.199 88.884 282.771 89.976 283.915 90.912C284.955 91.848 286.515 92.316 288.595 92.316ZM331.38 75.78C327.22 75.78 325.14 73.648 325.14 69.384C325.14 66.472 326.128 62.572 328.104 57.684C328.832 55.604 329.82 54.564 331.068 54.564C331.692 54.564 332.212 54.72 332.628 55.032C333.148 55.344 333.408 55.76 333.408 56.28C333.408 56.696 332.888 57.632 331.848 59.088C330.808 60.44 329.716 62.156 328.572 64.236C327.532 66.316 327.012 68.5 327.012 70.788C327.012 73.18 328.364 74.376 331.068 74.376C334.084 74.376 337.516 73.388 341.364 71.412C345.316 69.436 348.904 67.304 352.128 65.016C355.456 62.624 357.744 60.7 358.992 59.244L359.304 59.088L359.46 59.4L359.304 59.868C357.848 61.532 355.456 63.612 352.128 66.108C348.904 68.604 345.368 70.84 341.52 72.816C337.672 74.792 334.292 75.78 331.38 75.78ZM333.096 52.068C332.368 52.068 332.004 51.444 332.004 50.196C332.004 47.804 332.68 46.504 334.032 46.296C334.656 46.296 335.176 46.556 335.592 47.076C336.112 47.596 336.372 48.116 336.372 48.636C336.372 48.948 336.268 49.26 336.06 49.572C334.708 51.236 333.72 52.068 333.096 52.068ZM351.691 93.252C351.275 93.252 351.067 92.992 351.067 92.472C352.835 83.008 354.707 74.532 356.683 67.044C356.163 67.564 355.591 67.824 354.967 67.824C354.343 67.824 354.031 67.512 354.031 66.888C354.031 66.472 354.239 66.004 354.655 65.484C355.591 64.028 356.631 63.196 357.775 62.988C362.559 46.452 367.083 34.492 371.347 27.108C376.547 17.748 380.031 13.068 381.799 13.068C382.527 13.068 383.099 13.432 383.515 14.16C383.931 14.888 384.139 15.616 384.139 16.344C384.139 17.28 383.723 17.748 382.891 17.748C382.163 17.748 380.551 19.204 378.055 22.116C371.919 29.396 365.835 42.604 359.803 61.74L376.963 47.7C377.587 47.076 378.367 46.764 379.303 46.764C379.823 46.764 380.291 46.92 380.707 47.232C381.123 47.44 381.331 47.7 381.331 48.012C381.331 48.636 380.655 49.052 379.303 49.26C375.559 51.444 369.371 56.124 360.739 63.3C361.571 63.716 362.507 64.444 363.547 65.484C364.691 66.42 366.043 67.408 367.603 68.448C369.163 69.384 371.087 69.852 373.375 69.852C378.679 69.852 385.439 66.316 393.655 59.244L393.967 59.088C394.175 59.192 394.331 59.348 394.435 59.556L394.279 59.868C385.335 67.252 378.107 70.944 372.595 70.944C370.515 70.944 368.695 70.528 367.135 69.696C365.679 68.864 364.379 67.98 363.235 67.044C361.779 65.588 360.323 64.86 358.867 64.86C356.579 72.868 354.395 82.072 352.315 92.472C352.315 92.992 352.107 93.252 351.691 93.252ZM399.061 47.232C398.437 47.232 398.125 46.868 398.125 46.14C398.125 45.724 398.333 45.256 398.749 44.736C399.165 44.112 401.037 43.8 404.365 43.8C407.069 43.8 409.981 43.956 413.101 44.268L421.057 44.736C421.889 44.736 422.305 45.1 422.305 45.828C422.305 46.556 421.889 46.92 421.057 46.92C417.521 46.608 413.517 46.452 409.045 46.452C405.093 46.452 401.765 46.712 399.061 47.232ZM512.605 124.14H512.137C509.953 124.14 508.861 122.476 508.861 119.148C508.861 114.572 510.161 107.656 512.761 98.4C515.361 89.144 518.845 77.704 523.213 64.08L527.113 51.288H521.809C513.073 51.288 503.609 52.12 493.417 53.784C487.593 64.496 482.809 74.792 479.065 84.672L476.725 90.132C476.725 93.876 476.205 97.62 475.165 101.364C474.229 105.004 472.981 107.864 471.421 109.944C470.693 110.672 470.121 111.036 469.705 111.036C468.665 111.036 468.145 110.308 468.145 108.852C468.145 104.588 470.017 97.88 473.761 88.728C471.785 82.592 467.833 78.588 461.905 76.716C455.977 74.74 448.853 73.388 440.533 72.66C434.605 71.828 431.641 70.788 431.641 69.54C431.641 66.94 441.885 63.144 462.373 58.152C471.213 56.072 480.677 54.148 490.765 52.38C495.549 43.332 501.997 33.452 510.109 22.74C520.821 8.28399 528.829 1.05599 534.133 1.05599C537.461 1.57599 539.125 4.48799 539.125 9.79199C539.125 18.008 536.005 31.372 529.765 49.884C540.269 50.716 545.625 53.056 545.833 56.904C545.833 58.152 545.625 58.776 545.209 58.776C544.377 58.776 543.857 58.256 543.649 57.216C543.233 54.72 540.477 53.004 535.381 52.068C533.197 51.756 531.117 51.6 529.141 51.6C524.877 64.392 520.717 77.444 516.661 90.756C512.709 104.068 510.733 113.324 510.733 118.524C510.733 120.5 511.149 121.592 511.981 121.8C512.293 121.488 512.553 121.332 512.761 121.332C513.281 121.332 513.541 121.748 513.541 122.58C513.541 123.412 513.229 123.932 512.605 124.14ZM470.953 106.2C472.409 102.976 473.397 99.648 473.917 96.216C473.085 97.88 472.097 101.208 470.953 106.2ZM475.165 84.984C479.013 75.728 483.849 65.588 489.673 54.564C485.513 55.188 478.389 56.592 468.301 58.776C458.213 60.96 449.165 63.404 441.157 66.108C436.165 67.668 433.669 68.76 433.669 69.384C433.669 70.112 436.061 70.632 440.845 70.944H441.625C447.449 71.36 453.793 72.504 460.657 74.376C467.625 76.144 472.461 79.68 475.165 84.984ZM494.509 51.756C505.013 50.404 514.477 49.728 522.901 49.728L527.581 49.884C530.181 42.916 532.469 35.688 534.445 28.2C536.421 20.608 537.409 14.472 537.409 9.79199C537.409 6.152 536.629 3.864 535.069 2.928L533.821 2.61599C529.557 2.61599 522.433 9.73999 512.449 23.988C505.793 33.452 499.813 42.708 494.509 51.756ZM552.072 98.088C551.76 98.088 551.292 97.984 550.668 97.776C546.716 95.696 544.74 91.484 544.74 85.14C544.74 76.612 548.12 64.132 554.88 47.7C557.896 40.524 560.756 33.92 563.46 27.888C544.532 28.928 533.04 30.54 528.984 32.724L529.14 33.504C529.14 33.92 528.984 34.128 528.672 34.128C528.36 34.128 527.996 33.868 527.58 33.348C527.06 32.828 526.8 32.256 526.8 31.632C526.8 31.112 527.112 30.644 527.736 30.228C532.208 27.836 544.48 26.172 564.552 25.236C567.984 17.852 569.7 13.172 569.7 11.196L569.544 9.94799C569.544 9.01199 569.856 8.28399 570.48 7.76399C571.208 7.13999 571.936 6.82799 572.664 6.82799C573.808 6.82799 574.38 7.39999 574.38 8.54399C574.068 10.728 572.352 15.356 569.232 22.428L567.984 25.236L584.832 24.924C599.392 24.924 608.388 25.444 611.82 26.484C611.82 26.172 611.924 26.016 612.132 26.016C612.444 26.016 612.704 26.172 612.912 26.484C613.224 26.796 613.38 27.108 613.38 27.42C613.38 27.628 613.172 27.784 612.756 27.888C609.428 27.16 604.228 26.796 597.156 26.796C588.732 26.796 578.644 27.108 566.892 27.732C561.172 40.732 556.648 51.548 553.32 60.18C548.952 71.412 546.768 80.408 546.768 87.168C546.768 92.16 548.432 95.02 551.76 95.748C552.488 96.06 552.852 96.58 552.852 97.308C552.852 97.828 552.592 98.088 552.072 98.088ZM569.562 74.532C568.626 74.532 567.794 74.324 567.066 73.908C565.61 72.868 564.882 71.464 564.882 69.696C564.882 67.304 565.818 64.704 567.69 61.896C569.458 58.984 571.07 56.8 572.526 55.344C575.334 52.848 577.414 51.6 578.766 51.6C579.91 51.6 580.534 52.224 580.638 53.472C580.638 54.304 580.222 55.344 579.39 56.592C578.662 57.736 577.414 58.984 575.646 60.336C573.982 61.688 571.59 63.04 568.47 64.392C567.118 66.576 566.442 68.448 566.442 70.008C566.442 71.152 566.91 72.036 567.846 72.66C568.158 72.868 568.626 72.972 569.25 72.972C571.33 72.972 574.294 72.036 578.142 70.164C581.99 68.292 585.63 66.316 589.062 64.236C592.494 62.052 594.886 60.388 596.238 59.244L596.394 59.088C596.498 59.088 596.602 59.192 596.706 59.4C596.81 59.504 596.862 59.608 596.862 59.712C595.406 61.168 593.014 63.04 589.686 65.328C580.742 71.464 574.034 74.532 569.562 74.532ZM570.81 60.492C571.85 60.076 573.202 59.244 574.866 57.996C577.778 55.292 579.234 53.628 579.234 53.004L579.078 52.848C578.454 52.848 576.686 54.2 573.774 56.904L570.81 60.492ZM595.91 91.068C592.998 91.068 591.438 88.468 591.23 83.268C591.23 78.38 592.686 70.944 595.598 60.96C598.198 52.64 601.214 44.996 604.646 38.028C608.078 31.06 610.626 26.328 612.29 23.832C614.474 19.672 616.71 16.552 618.998 14.472C621.39 12.392 623.418 11.352 625.082 11.352C626.954 11.352 627.994 12.756 628.202 15.564C628.202 18.58 626.538 23.312 623.21 29.76C620.714 34.232 617.75 38.652 614.318 43.02C610.886 47.388 607.766 51.132 604.958 54.252C602.254 57.268 600.538 59.088 599.81 59.712C596.066 71.152 594.194 79.212 594.194 83.892C594.194 87.532 595.182 89.456 597.158 89.664C600.174 89.664 604.75 86.544 610.886 80.304C617.022 74.064 622.846 67.096 628.358 59.4C628.462 59.296 628.618 59.244 628.826 59.244C629.242 59.244 629.45 59.4 629.45 59.712L629.294 60.024C624.198 67.304 618.322 74.324 611.666 81.084C605.114 87.74 599.862 91.068 595.91 91.068ZM600.434 57.216C603.762 53.784 607.454 49.52 611.51 44.424C615.67 39.328 619.102 34.388 621.806 29.604C625.238 23.052 626.954 18.424 626.954 15.72C626.954 14.056 626.382 13.172 625.238 13.068C624.198 13.068 622.742 14.056 620.87 16.032C619.102 18.008 617.074 21.076 614.786 25.236C612.498 29.292 610.002 34.284 607.298 40.212C604.698 46.036 602.41 51.704 600.434 57.216ZM631.955 75.78C627.795 75.78 625.715 73.648 625.715 69.384C625.715 66.472 626.703 62.572 628.679 57.684C629.407 55.604 630.395 54.564 631.643 54.564C632.267 54.564 632.787 54.72 633.203 55.032C633.723 55.344 633.983 55.76 633.983 56.28C633.983 56.696 633.463 57.632 632.423 59.088C631.383 60.44 630.291 62.156 629.147 64.236C628.107 66.316 627.587 68.5 627.587 70.788C627.587 73.18 628.939 74.376 631.643 74.376C634.659 74.376 638.091 73.388 641.939 71.412C645.891 69.436 649.479 67.304 652.703 65.016C656.031 62.624 658.319 60.7 659.567 59.244L659.879 59.088L660.035 59.4L659.879 59.868C658.423 61.532 656.031 63.612 652.703 66.108C649.479 68.604 645.943 70.84 642.095 72.816C638.247 74.792 634.867 75.78 631.955 75.78ZM633.671 52.068C632.943 52.068 632.579 51.444 632.579 50.196C632.579 47.804 633.255 46.504 634.607 46.296C635.231 46.296 635.751 46.556 636.167 47.076C636.687 47.596 636.947 48.116 636.947 48.636C636.947 48.948 636.843 49.26 636.635 49.572C635.283 51.236 634.295 52.068 633.671 52.068ZM659.597 74.532C658.661 74.532 657.829 74.324 657.101 73.908C655.645 72.868 654.917 71.464 654.917 69.696C654.917 67.304 655.853 64.704 657.725 61.896C659.493 58.984 661.105 56.8 662.561 55.344C665.369 52.848 667.449 51.6 668.801 51.6C669.945 51.6 670.569 52.224 670.673 53.472C670.673 54.304 670.257 55.344 669.425 56.592C668.697 57.736 667.449 58.984 665.681 60.336C664.017 61.688 661.625 63.04 658.505 64.392C657.153 66.576 656.477 68.448 656.477 70.008C656.477 71.152 656.945 72.036 657.881 72.66C658.193 72.868 658.661 72.972 659.285 72.972C661.365 72.972 664.329 72.036 668.177 70.164C672.025 68.292 675.665 66.316 679.097 64.236C682.529 62.052 684.921 60.388 686.273 59.244L686.429 59.088C686.533 59.088 686.637 59.192 686.741 59.4C686.845 59.504 686.897 59.608 686.897 59.712C685.441 61.168 683.049 63.04 679.721 65.328C670.777 71.464 664.069 74.532 659.597 74.532ZM660.845 60.492C661.885 60.076 663.237 59.244 664.901 57.996C667.813 55.292 669.269 53.628 669.269 53.004L669.113 52.848C668.489 52.848 666.721 54.2 663.809 56.904L660.845 60.492ZM686.87 92.472C684.998 92.472 684.01 91.12 683.906 88.416C683.906 85.192 685.674 79.836 689.21 72.348L691.238 67.512C692.07 65.744 692.486 64.496 692.486 63.768C692.486 63.248 692.278 62.832 691.862 62.52C691.446 62.208 690.77 61.844 689.834 61.428L688.274 60.492C685.466 59.348 684.062 57.476 684.062 54.876C684.062 53.836 684.374 52.9 684.998 52.068C685.518 51.132 686.298 50.664 687.338 50.664C689.626 50.976 690.77 51.548 690.77 52.38C690.77 52.692 690.458 52.952 689.834 53.16C689.002 54.2 688.586 55.084 688.586 55.812C688.586 56.644 689.002 57.32 689.834 57.84C690.666 58.36 691.394 58.828 692.018 59.244C693.37 60.076 694.358 60.856 694.982 61.584C695.71 62.208 696.074 63.04 696.074 64.08C696.074 65.64 694.826 68.812 692.33 73.596C688.17 81.188 686.09 86.388 686.09 89.196C686.09 89.924 686.194 90.444 686.402 90.756C686.61 91.068 686.974 91.276 687.494 91.38C688.742 91.38 690.77 90.08 693.578 87.48C696.386 84.88 699.558 81.76 703.094 78.12C707.358 73.752 711.57 69.696 715.73 65.952C719.89 62.208 723.374 59.92 726.182 59.088C726.494 59.088 726.65 59.192 726.65 59.4C726.65 59.608 726.494 59.712 726.182 59.712C723.79 60.336 720.826 62.26 717.29 65.484C713.858 68.604 710.218 72.244 706.37 76.404C702.522 80.564 698.83 84.308 695.294 87.636C691.862 90.86 689.054 92.472 686.87 92.472ZM768.455 75.78C764.295 75.78 762.215 73.648 762.215 69.384C762.215 66.472 763.203 62.572 765.179 57.684C765.907 55.604 766.895 54.564 768.143 54.564C768.767 54.564 769.287 54.72 769.703 55.032C770.223 55.344 770.483 55.76 770.483 56.28C770.483 56.696 769.963 57.632 768.923 59.088C767.883 60.44 766.791 62.156 765.647 64.236C764.607 66.316 764.087 68.5 764.087 70.788C764.087 73.18 765.439 74.376 768.143 74.376C771.159 74.376 774.591 73.388 778.439 71.412C782.391 69.436 785.979 67.304 789.203 65.016C792.531 62.624 794.819 60.7 796.067 59.244L796.379 59.088L796.535 59.4L796.379 59.868C794.923 61.532 792.531 63.612 789.203 66.108C785.979 68.604 782.443 70.84 778.595 72.816C774.747 74.792 771.367 75.78 768.455 75.78ZM770.171 52.068C769.443 52.068 769.079 51.444 769.079 50.196C769.079 47.804 769.755 46.504 771.107 46.296C771.731 46.296 772.251 46.556 772.667 47.076C773.187 47.596 773.447 48.116 773.447 48.636C773.447 48.948 773.343 49.26 773.135 49.572C771.783 51.236 770.795 52.068 770.171 52.068ZM793.913 75.936C793.289 75.936 792.717 75.78 792.197 75.468C791.677 75.052 791.417 74.48 791.417 73.752C791.417 73.44 793.445 66.836 797.501 53.94C797.709 53.316 798.333 53.004 799.373 53.004C800.309 53.004 800.777 53.316 800.777 53.94C800.777 54.148 799.321 58.828 796.409 67.98C798.385 64.86 800.673 61.844 803.273 58.932C805.977 56.02 808.265 54.564 810.137 54.564L810.917 54.72C812.269 55.136 813.153 56.28 813.569 58.152C813.985 60.024 814.245 62.156 814.349 64.548C814.453 66.94 814.713 69.124 815.129 71.1C815.545 72.972 816.585 73.908 818.249 73.908C821.369 73.908 827.297 69.072 836.033 59.4C836.137 59.296 836.293 59.244 836.501 59.244C836.709 59.244 836.813 59.348 836.813 59.556L836.657 60.024C827.817 70.008 821.525 75 817.781 75C815.701 75 814.349 73.804 813.725 71.412C813.101 69.02 812.737 66.472 812.633 63.768C812.529 62 812.321 60.544 812.009 59.4C811.801 58.152 811.385 57.476 810.761 57.372L810.293 57.216C807.901 57.216 804.261 61.012 799.373 68.604C797.709 71.308 796.669 73.232 796.253 74.376C795.837 75.416 795.057 75.936 793.913 75.936ZM898.248 112.908C892.736 112.908 888.264 111.764 884.832 109.476C881.4 107.188 879.684 104.172 879.684 100.428C879.684 96.372 882.076 91.692 886.86 86.388C891.748 80.98 899.756 75.416 910.884 69.696L911.196 68.448C910.78 64.184 910.104 60.648 909.168 57.84C908.336 55.032 906.776 51.652 904.488 47.7C903.448 45.62 902.928 43.54 902.928 41.46C902.928 37.3 904.592 33.244 907.92 29.292C911.352 25.34 915.564 21.752 920.556 18.528C924.092 16.448 928.356 14.212 933.348 11.82L934.128 9.94799C935.064 7.86799 936.156 5.736 937.404 3.552C938.756 1.368 940.264 0.275995 941.928 0.275995C942.656 0.275995 943.28 0.483995 943.8 0.899996C944.32 1.21199 944.58 1.57599 944.58 1.99199C944.58 2.40799 944.32 2.87599 943.8 3.39599C942.968 4.124 942.032 4.696 940.992 5.112C940.576 5.32 940.056 5.83999 939.432 6.672C938.496 7.91999 937.612 9.27199 936.78 10.728C942.812 8.33599 948.428 7.13999 953.628 7.13999C956.852 7.13999 959.4 7.86799 961.272 9.324C963.248 10.676 964.236 12.496 964.236 14.784C964.236 17.904 962.728 21.284 959.712 24.924C956.8 28.564 953.368 32.1 949.416 35.532C945.568 38.86 942.032 41.668 938.808 43.956C941.096 43.332 943.436 43.02 945.828 43.02C949.572 43.02 952.952 43.956 955.968 45.828C958.984 47.596 960.856 50.612 961.584 54.876C965.536 55.084 968.604 55.968 970.788 57.528C971.1 57.84 971.256 58.204 971.256 58.62C971.256 59.14 971.1 59.608 970.788 60.024C970.476 60.44 970.112 60.648 969.696 60.648C969.384 60.648 969.176 60.492 969.072 60.18C968.968 59.868 968.864 59.608 968.76 59.4C968.76 59.192 968.708 58.984 968.604 58.776C968.604 58.568 968.448 58.308 968.136 57.996C967.928 57.58 967.096 57.216 965.64 56.904C964.288 56.488 962.988 56.28 961.74 56.28V57.06C961.74 63.404 959.972 69.696 956.436 75.936C952.9 82.176 948.272 87.896 942.552 93.096C936.936 98.296 930.8 102.56 924.144 105.888C914.264 110.568 905.632 112.908 898.248 112.908ZM914.472 67.668C921.752 64.34 929.5 61.532 937.716 59.244C945.932 56.956 953.004 55.552 958.932 55.032C957.476 48.792 953.004 45.672 945.516 45.672C941.356 45.672 937.144 46.556 932.88 48.324C932.256 48.636 931.684 48.792 931.164 48.792C930.02 48.792 929.448 48.116 929.448 46.764C929.448 46.14 929.604 45.568 929.916 45.048C930.228 44.528 930.696 44.268 931.32 44.268L932.256 44.424C933.4 44.424 936.364 42.708 941.148 39.276C946.036 35.74 950.716 31.684 955.188 27.108C959.66 22.428 961.896 18.372 961.896 14.94C961.896 11.404 959.192 9.532 953.784 9.324C948.272 9.324 942.032 10.78 935.064 13.692C926.744 30.54 919.88 48.532 914.472 67.668ZM912.912 62.988C918.008 46.348 924.3 30.384 931.788 15.096L930.072 16.032C928.616 16.76 927.108 17.54 925.548 18.372C923.988 19.204 922.74 19.932 921.804 20.556C917.02 23.468 913.068 26.744 909.948 30.384C906.828 33.92 905.268 37.56 905.268 41.304C905.268 43.072 905.684 44.84 906.516 46.608C909.636 51.808 911.768 57.268 912.912 62.988ZM906.516 97.932C906.828 97.932 907.4 95.956 908.232 92.004C909.064 88.052 909.48 85.608 909.48 84.672C908.128 88.416 907.14 92.784 906.516 97.776V97.932ZM899.184 110.1C905.944 110.1 913.848 107.968 922.896 103.704C929.032 100.584 934.856 96.476 940.368 91.38C945.88 86.284 950.404 80.72 953.94 74.688C957.476 68.656 959.244 62.728 959.244 56.904V56.28C953.212 57.008 945.984 58.62 937.56 61.116C929.136 63.508 921.18 66.472 913.692 70.008L911.976 76.716C911.768 80.98 911.352 84.88 910.728 88.416C909.896 93.2 909.168 96.476 908.544 98.244C907.92 100.012 906.984 101.104 905.736 101.52C905.216 101.52 904.852 101.364 904.644 101.052C904.436 100.636 904.332 99.856 904.332 98.712C904.332 95.072 905.944 87.324 909.168 75.468L910.104 72.192C900.328 77.392 893.308 82.332 889.044 87.012C884.78 91.692 882.648 95.8 882.648 99.336C882.648 105.888 888.16 109.476 899.184 110.1ZM979.908 75.78C975.748 75.78 973.668 73.648 973.668 69.384C973.668 66.472 974.656 62.572 976.632 57.684C977.36 55.604 978.348 54.564 979.596 54.564C980.22 54.564 980.74 54.72 981.156 55.032C981.676 55.344 981.936 55.76 981.936 56.28C981.936 56.696 981.416 57.632 980.376 59.088C979.336 60.44 978.244 62.156 977.1 64.236C976.06 66.316 975.54 68.5 975.54 70.788C975.54 73.18 976.892 74.376 979.596 74.376C982.612 74.376 986.044 73.388 989.892 71.412C993.844 69.436 997.432 67.304 1000.66 65.016C1003.98 62.624 1006.27 60.7 1007.52 59.244L1007.83 59.088L1007.99 59.4L1007.83 59.868C1006.38 61.532 1003.98 63.612 1000.66 66.108C997.432 68.604 993.896 70.84 990.048 72.816C986.2 74.792 982.82 75.78 979.908 75.78ZM981.624 52.068C980.896 52.068 980.532 51.444 980.532 50.196C980.532 47.804 981.208 46.504 982.56 46.296C983.184 46.296 983.704 46.556 984.12 47.076C984.64 47.596 984.9 48.116 984.9 48.636C984.9 48.948 984.796 49.26 984.588 49.572C983.236 51.236 982.248 52.068 981.624 52.068ZM1007.55 74.532C1006.61 74.532 1005.78 74.324 1005.05 73.908C1003.6 72.868 1002.87 71.464 1002.87 69.696C1002.87 67.304 1003.81 64.704 1005.68 61.896C1007.45 58.984 1009.06 56.8 1010.51 55.344C1013.32 52.848 1015.4 51.6 1016.75 51.6C1017.9 51.6 1018.52 52.224 1018.63 53.472C1018.63 54.304 1018.21 55.344 1017.38 56.592C1016.65 57.736 1015.4 58.984 1013.63 60.336C1011.97 61.688 1009.58 63.04 1006.46 64.392C1005.11 66.576 1004.43 68.448 1004.43 70.008C1004.43 71.152 1004.9 72.036 1005.83 72.66C1006.15 72.868 1006.61 72.972 1007.24 72.972C1009.32 72.972 1012.28 72.036 1016.13 70.164C1019.98 68.292 1023.62 66.316 1027.05 64.236C1030.48 62.052 1032.87 60.388 1034.23 59.244L1034.38 59.088C1034.49 59.088 1034.59 59.192 1034.69 59.4C1034.8 59.504 1034.85 59.608 1034.85 59.712C1033.39 61.168 1031 63.04 1027.67 65.328C1018.73 71.464 1012.02 74.532 1007.55 74.532ZM1008.8 60.492C1009.84 60.076 1011.19 59.244 1012.85 57.996C1015.77 55.292 1017.22 53.628 1017.22 53.004L1017.07 52.848C1016.44 52.848 1014.67 54.2 1011.76 56.904L1008.8 60.492ZM1035.46 98.088C1035.15 98.088 1034.68 97.984 1034.05 97.776C1030.1 95.696 1028.13 91.484 1028.13 85.14C1028.13 76.612 1031.51 64.132 1038.27 47.7C1041.28 40.524 1044.14 33.92 1046.85 27.888C1027.92 28.928 1016.43 30.54 1012.37 32.724L1012.53 33.504C1012.53 33.92 1012.37 34.128 1012.06 34.128C1011.75 34.128 1011.38 33.868 1010.97 33.348C1010.45 32.828 1010.19 32.256 1010.19 31.632C1010.19 31.112 1010.5 30.644 1011.12 30.228C1015.59 27.836 1027.87 26.172 1047.94 25.236C1051.37 17.852 1053.09 13.172 1053.09 11.196L1052.93 9.94799C1052.93 9.01199 1053.24 8.28399 1053.87 7.76399C1054.59 7.13999 1055.32 6.82799 1056.05 6.82799C1057.19 6.82799 1057.77 7.39999 1057.77 8.54399C1057.45 10.728 1055.74 15.356 1052.62 22.428L1051.37 25.236L1068.22 24.924C1082.78 24.924 1091.77 25.444 1095.21 26.484C1095.21 26.172 1095.31 26.016 1095.52 26.016C1095.83 26.016 1096.09 26.172 1096.3 26.484C1096.61 26.796 1096.77 27.108 1096.77 27.42C1096.77 27.628 1096.56 27.784 1096.14 27.888C1092.81 27.16 1087.61 26.796 1080.54 26.796C1072.12 26.796 1062.03 27.108 1050.28 27.732C1044.56 40.732 1040.03 51.548 1036.71 60.18C1032.34 71.412 1030.15 80.408 1030.15 87.168C1030.15 92.16 1031.82 95.02 1035.15 95.748C1035.87 96.06 1036.24 96.58 1036.24 97.308C1036.24 97.828 1035.98 98.088 1035.46 98.088ZM1056.54 75.78C1052.38 75.78 1050.3 73.648 1050.3 69.384C1050.3 66.472 1051.28 62.572 1053.26 57.684C1053.99 55.604 1054.98 54.564 1056.22 54.564C1056.85 54.564 1057.37 54.72 1057.78 55.032C1058.3 55.344 1058.56 55.76 1058.56 56.28C1058.56 56.696 1058.04 57.632 1057 59.088C1055.96 60.44 1054.87 62.156 1053.73 64.236C1052.69 66.316 1052.17 68.5 1052.17 70.788C1052.17 73.18 1053.52 74.376 1056.22 74.376C1059.24 74.376 1062.67 73.388 1066.52 71.412C1070.47 69.436 1074.06 67.304 1077.28 65.016C1080.61 62.624 1082.9 60.7 1084.15 59.244L1084.46 59.088L1084.62 59.4L1084.46 59.868C1083 61.532 1080.61 63.612 1077.28 66.108C1074.06 68.604 1070.52 70.84 1066.68 72.816C1062.83 74.792 1059.45 75.78 1056.54 75.78ZM1058.25 52.068C1057.52 52.068 1057.16 51.444 1057.16 50.196C1057.16 47.804 1057.84 46.504 1059.19 46.296C1059.81 46.296 1060.33 46.556 1060.75 47.076C1061.27 47.596 1061.53 48.116 1061.53 48.636C1061.53 48.948 1061.42 49.26 1061.22 49.572C1059.86 51.236 1058.88 52.068 1058.25 52.068ZM1062.96 125.856C1060.36 125.856 1058.96 124.244 1058.75 121.02C1058.75 116.132 1062.34 109.164 1069.52 100.116C1076.69 90.964 1084.44 82.54 1092.76 74.844C1094.11 70.788 1095.67 64.912 1097.44 57.216L1097.28 56.904C1096.76 56.904 1095.26 58.516 1092.76 61.74C1090.99 64.132 1089.12 66.42 1087.14 68.604C1085.17 70.684 1083.56 71.724 1082.31 71.724C1081.48 71.62 1080.9 71.36 1080.59 70.944C1080.28 70.528 1080.12 69.8 1080.12 68.76C1080.12 67.096 1080.7 65.12 1081.84 62.832C1082.98 60.44 1084.49 58.412 1086.36 56.748C1088.24 54.98 1090.37 54.096 1092.76 54.096C1093.7 54.096 1094.74 54.304 1095.88 54.72C1096.92 53.784 1097.91 53.264 1098.84 53.16C1099.47 53.264 1099.94 53.472 1100.25 53.784C1100.56 54.096 1100.72 54.668 1100.72 55.5C1100.72 57.164 1100.46 58.776 1099.94 60.336C1099.52 61.792 1098.95 63.456 1098.22 65.328C1097.49 67.2 1096.71 69.488 1095.88 72.192C1103.58 65.64 1109.87 61.324 1114.76 59.244C1114.96 59.244 1115.12 59.296 1115.22 59.4C1115.33 59.504 1115.38 59.608 1115.38 59.712C1115.38 59.92 1115.22 60.128 1114.91 60.336C1109.71 62.52 1103.06 67.408 1094.94 75L1094.32 76.716C1090.26 87.948 1086.05 97.776 1081.68 106.2C1075.03 119.304 1068.79 125.856 1062.96 125.856ZM1083.4 68.448C1084.13 68.448 1086.78 65.588 1091.36 59.868L1093.23 57.528L1092.29 57.372C1090 57.372 1087.92 58.672 1086.05 61.272C1084.28 63.768 1083.3 66.004 1083.09 67.98C1083.09 68.292 1083.19 68.448 1083.4 68.448ZM1062.96 124.452L1064.21 124.296C1067.75 122.944 1071.34 119.408 1074.98 113.688C1078.51 107.864 1081.68 101.676 1084.49 95.124C1087.4 88.468 1089.54 83.268 1090.89 79.524L1091.51 78.12C1083.82 85.608 1076.69 93.668 1070.14 102.3C1063.59 110.932 1060.31 117.536 1060.31 122.112C1060.31 123.672 1061.2 124.452 1062.96 124.452ZM1109.97 78.276C1108.93 78.276 1108.41 77.808 1108.41 76.872L1108.56 76.248C1111.06 68.24 1114.96 57.476 1120.26 43.956C1126.19 28.98 1130.92 19.62 1134.46 15.876C1136.33 13.9 1137.84 12.912 1138.98 12.912C1140.34 12.912 1141.06 14.004 1141.17 16.188C1141.17 18.684 1139.97 22.48 1137.58 27.576C1135.29 31.944 1132.69 36.364 1129.78 40.836C1126.87 45.308 1124.27 49.104 1121.98 52.224C1119.8 55.24 1118.6 56.852 1118.39 57.06L1114.8 67.668L1118.7 62.676C1123.8 56.436 1127.65 53.316 1130.25 53.316C1131.5 53.316 1132.28 54.148 1132.59 55.812C1133 57.476 1133.26 59.452 1133.37 61.74C1133.47 63.924 1133.73 65.952 1134.15 67.824C1134.67 69.696 1135.71 70.632 1137.27 70.632C1138.83 70.632 1140.96 69.696 1143.66 67.824C1146.37 65.848 1150.48 62.624 1155.99 58.152L1156.61 57.684C1156.92 57.684 1157.08 57.84 1157.08 58.152L1156.92 58.464C1151.1 63.352 1146.73 66.888 1143.82 69.072C1140.91 71.152 1138.57 72.192 1136.8 72.192C1134.72 72.192 1133.42 71.1 1132.9 68.916C1132.38 66.628 1132.07 64.184 1131.96 61.584C1131.86 59.92 1131.65 58.516 1131.34 57.372C1131.13 56.228 1130.72 55.604 1130.09 55.5C1128.01 55.5 1123.54 60.024 1116.68 69.072C1114.39 72.192 1112.88 74.48 1112.15 75.936C1111.84 76.768 1111.53 77.392 1111.22 77.808C1110.9 78.12 1110.49 78.276 1109.97 78.276ZM1118.7 54.876L1120.11 53.004C1127.8 42.396 1133.26 33.764 1136.49 27.108C1138.88 21.7 1140.08 18.06 1140.08 16.188C1140.08 15.148 1139.76 14.628 1139.14 14.628C1138.52 14.628 1137.48 15.564 1136.02 17.436C1134.56 19.204 1132.95 22.012 1131.18 25.86C1126.82 35.012 1122.66 44.684 1118.7 54.876ZM1154.71 74.532C1153.78 74.532 1152.95 74.324 1152.22 73.908C1150.76 72.868 1150.03 71.464 1150.03 69.696C1150.03 67.304 1150.97 64.704 1152.84 61.896C1154.61 58.984 1156.22 56.8 1157.68 55.344C1160.49 52.848 1162.57 51.6 1163.92 51.6C1165.06 51.6 1165.69 52.224 1165.79 53.472C1165.79 54.304 1165.37 55.344 1164.54 56.592C1163.81 57.736 1162.57 58.984 1160.8 60.336C1159.13 61.688 1156.74 63.04 1153.62 64.392C1152.27 66.576 1151.59 68.448 1151.59 70.008C1151.59 71.152 1152.06 72.036 1153 72.66C1153.31 72.868 1153.78 72.972 1154.4 72.972C1156.48 72.972 1159.45 72.036 1163.29 70.164C1167.14 68.292 1170.78 66.316 1174.21 64.236C1177.65 62.052 1180.04 60.388 1181.39 59.244L1181.55 59.088C1181.65 59.088 1181.75 59.192 1181.86 59.4C1181.96 59.504 1182.01 59.608 1182.01 59.712C1180.56 61.168 1178.17 63.04 1174.84 65.328C1165.89 71.464 1159.19 74.532 1154.71 74.532ZM1155.96 60.492C1157 60.076 1158.35 59.244 1160.02 57.996C1162.93 55.292 1164.39 53.628 1164.39 53.004L1164.23 52.848C1163.61 52.848 1161.84 54.2 1158.93 56.904L1155.96 60.492ZM1184.96 75.78C1180.8 75.78 1178.72 73.648 1178.72 69.384C1178.72 66.472 1179.71 62.572 1181.69 57.684C1182.41 55.604 1183.4 54.564 1184.65 54.564C1185.27 54.564 1185.79 54.72 1186.21 55.032C1186.73 55.344 1186.99 55.76 1186.99 56.28C1186.99 56.696 1186.47 57.632 1185.43 59.088C1184.39 60.44 1183.3 62.156 1182.15 64.236C1181.11 66.316 1180.59 68.5 1180.59 70.788C1180.59 73.18 1181.95 74.376 1184.65 74.376C1187.67 74.376 1191.1 73.388 1194.95 71.412C1198.9 69.436 1202.49 67.304 1205.71 65.016C1209.04 62.624 1211.33 60.7 1212.57 59.244L1212.89 59.088L1213.04 59.4L1212.89 59.868C1211.43 61.532 1209.04 63.612 1205.71 66.108C1202.49 68.604 1198.95 70.84 1195.1 72.816C1191.25 74.792 1187.87 75.78 1184.96 75.78ZM1186.68 52.068C1185.95 52.068 1185.59 51.444 1185.59 50.196C1185.59 47.804 1186.26 46.504 1187.61 46.296C1188.24 46.296 1188.76 46.556 1189.17 47.076C1189.69 47.596 1189.95 48.116 1189.95 48.636C1189.95 48.948 1189.85 49.26 1189.64 49.572C1188.29 51.236 1187.3 52.068 1186.68 52.068ZM1207.14 76.404C1206.1 76.404 1205.58 76.04 1205.58 75.312C1205.69 74.896 1208.55 68.292 1214.16 55.5C1214.58 54.876 1215.05 54.564 1215.57 54.564C1215.98 54.564 1216.35 54.72 1216.66 55.032C1217.08 55.24 1217.28 55.552 1217.28 55.968L1214.63 62.364C1219.83 54.668 1223.84 50.82 1226.64 50.82C1227.27 50.82 1227.68 50.976 1227.89 51.288C1228.2 51.6 1228.36 52.276 1228.36 53.316C1228.36 55.292 1227.84 58.048 1226.8 61.584C1225.86 65.12 1225.4 67.72 1225.4 69.384C1225.4 70.632 1225.71 71.256 1226.33 71.256C1227.16 71.152 1228.05 70.58 1228.98 69.54C1230.02 68.396 1231.12 67.044 1232.26 65.484C1233.51 63.82 1234.81 62.26 1236.16 60.804C1237.62 59.348 1238.92 58.62 1240.06 58.62C1240.79 58.62 1241.36 58.88 1241.78 59.4C1242.3 59.92 1242.82 60.752 1243.34 61.896C1243.96 62.936 1244.84 64.34 1245.99 66.108C1247.96 69.228 1250.2 70.788 1252.7 70.788C1256.54 70.788 1262 66.94 1269.08 59.244L1269.39 59.088C1269.8 59.088 1270.01 59.296 1270.01 59.712V60.024C1262.73 67.824 1256.91 71.724 1252.54 71.724C1250.15 71.724 1248.22 70.944 1246.77 69.384C1245.42 67.72 1244.27 66.004 1243.34 64.236C1241.88 61.844 1240.79 60.648 1240.06 60.648C1239.12 60.752 1237.46 62.364 1235.07 65.484C1233.72 67.356 1232.26 69.124 1230.7 70.788C1229.24 72.348 1227.84 73.128 1226.49 73.128C1225.66 73.024 1224.98 72.764 1224.46 72.348C1224.04 71.932 1223.84 70.944 1223.84 69.384C1224.25 66.056 1224.82 63.144 1225.55 60.648C1226.28 58.152 1226.64 56.176 1226.64 54.72C1226.64 53.992 1226.49 53.628 1226.18 53.628C1225.97 53.524 1225.81 53.472 1225.71 53.472C1224.46 53.472 1222.64 55.032 1220.25 58.152C1217.96 61.168 1215.72 64.392 1213.54 67.824C1211.46 71.256 1209.95 73.804 1209.02 75.468C1208.5 76.092 1207.87 76.404 1207.14 76.404Z" fill="#605E60"/>
</svg>
