<svg width="23" height="16" viewBox="0 0 23 16" fill="none" xmlns="http://www.w3.org/2000/svg">
<path d="M11.6851 0H11.8118C12.982 0.00427084 18.9114 0.0469795 20.5101 0.476911C20.9934 0.608123 21.4338 0.863881 21.7873 1.21863C22.1408 1.57337 22.395 2.01468 22.5245 2.49844C22.6683 3.03942 22.7693 3.75549 22.8377 4.49435L22.8519 4.64241L22.8832 5.01255L22.8946 5.1606C22.9872 6.46178 22.9985 7.6804 23 7.94661V8.05339C22.9985 8.32957 22.9857 9.63075 22.8832 10.986L22.8718 11.1355L22.859 11.2836C22.7879 12.0979 22.6825 12.9065 22.5245 13.5016C22.3954 13.9855 22.1413 14.427 21.7877 14.7818C21.4342 15.1366 20.9936 15.3923 20.5101 15.5231C18.8587 15.9673 12.582 15.9986 11.7121 16H11.51C11.0701 16 9.25071 15.9915 7.34307 15.926L7.10105 15.9174L6.9772 15.9117L6.73376 15.9018L6.49032 15.8918C4.91011 15.822 3.40535 15.7096 2.71205 15.5217C2.22872 15.391 1.78822 15.1356 1.43467 14.781C1.08113 14.4265 0.826966 13.9853 0.697635 13.5016C0.539614 12.9079 0.434267 12.0979 0.363086 11.2836L0.351697 11.1341L0.340308 10.986C0.270049 10.0214 0.231117 9.05472 0.223572 8.08755L0.223572 7.91245C0.226419 7.60637 0.237808 6.54862 0.314683 5.38126L0.324648 5.23463L0.328919 5.1606L0.340308 5.01255L0.371628 4.64241L0.385864 4.49435C0.454197 3.75549 0.555274 3.03799 0.699059 2.49844C0.828172 2.01448 1.08224 1.57297 1.4358 1.21816C1.78935 0.863356 2.22997 0.60773 2.71347 0.476911C3.40677 0.291841 4.91153 0.177952 6.49174 0.106771L6.73376 0.0968057L6.97862 0.0882643L7.10105 0.0839934L7.34449 0.0740282C8.69935 0.0304294 10.0548 0.00622527 11.4103 0.00142368H11.6851V0ZM9.3347 4.5698V11.4288L15.2527 8.00071L9.3347 4.5698Z" fill="#AD9388"/>
</svg>
